<svg width="176" height="38" viewBox="0 0 176 38" fill="none" xmlns="http://www.w3.org/2000/svg">
<g clip-path="url(#clip0_7358_684)">
<path fill-rule="evenodd" clip-rule="evenodd" d="M7.52618 27.315C5.92674 26.6029 4.48602 25.4732 3.38472 23.9482C0.0393148 19.3265 1.05515 12.8532 5.6508 9.49134C6.10011 9.16227 6.56896 8.87495 7.04757 8.63184C5.66057 9.1721 4.36148 10.0046 3.24065 11.1293C-1.08152 15.476 -1.08152 22.5215 3.24065 26.8681C4.63009 28.2654 6.30035 29.2109 8.06828 29.7094C7.78991 28.9285 7.61165 28.123 7.52618 27.315Z" fill="black"/>
<path fill-rule="evenodd" clip-rule="evenodd" d="M10.6226 7.56833C11.3307 5.95983 12.454 4.51094 13.9704 3.40095C18.5685 0.039055 25.0029 1.06064 28.3459 5.68233C28.6731 6.13418 28.9563 6.60323 29.2005 7.08701C28.6609 5.69215 27.8355 4.3857 26.7171 3.25852C22.395 -1.08813 15.3891 -1.08813 11.067 3.25852C9.67754 4.65829 8.7374 6.33555 8.24414 8.1135C9.02067 7.83355 9.81917 7.65182 10.625 7.56833H10.6226Z" fill="black"/>
<path fill-rule="evenodd" clip-rule="evenodd" d="M34.5435 11.1294C33.154 9.73206 31.4838 8.7866 29.7158 8.28809C29.9918 9.06901 30.1725 9.87449 30.2579 10.6824C31.8574 11.3946 33.2981 12.5242 34.3994 14.0492C37.7448 18.6709 36.729 25.1418 32.1333 28.5061C31.684 28.8352 31.2176 29.1201 30.7365 29.3656C32.1235 28.8229 33.4251 27.9929 34.5435 26.8682C38.8656 22.5215 38.8656 15.4736 34.5435 11.1269V11.1294Z" fill="black"/>
<path fill-rule="evenodd" clip-rule="evenodd" d="M27.162 30.429C26.4538 32.0375 25.3305 33.4863 23.8141 34.5963C19.2185 37.9582 12.7841 36.9391 9.43865 32.3174C9.11143 31.8656 8.82817 31.3941 8.58398 30.9103C9.12364 32.3051 9.94901 33.614 11.0698 34.7388C15.392 39.0854 22.3978 39.0854 26.72 34.7388C28.1119 33.339 29.0496 31.6617 29.5453 29.8838C28.7687 30.1637 27.9678 30.343 27.1644 30.429H27.162Z" fill="black"/>
<path fill-rule="evenodd" clip-rule="evenodd" d="M19.1615 20.0091C18.8929 20.7188 18.7537 21.4039 18.7537 22.0621C18.7464 22.7153 18.9075 23.5282 19.225 24.481C19.5937 25.5566 19.7476 26.5561 19.6963 27.4745C19.6377 28.3905 19.3715 29.2746 18.8929 30.1169C18.0993 31.5093 16.9955 32.4105 15.5744 32.8084C14.1605 33.2111 12.7637 33.0171 11.3841 32.2239C10.0215 31.4381 9.13994 30.3281 8.74436 28.8988C8.34877 27.4696 8.52459 26.0895 9.28402 24.7585C9.78949 23.872 10.4048 23.1794 11.1228 22.6736C11.848 22.1726 12.8077 21.7846 14.0018 21.5169C14.9346 21.3205 15.6891 21.0503 16.2679 20.7041C16.8515 20.3603 17.3911 19.8814 17.8893 19.2748C17.1884 18.9949 16.512 18.85 15.8576 18.8475C15.2056 18.8475 14.3925 18.9998 13.4352 19.3117C12.3657 19.6825 11.3718 19.8372 10.4635 19.7881C9.55995 19.734 8.69063 19.4713 7.86527 18.9949C6.48071 18.1968 5.57721 17.0819 5.16941 15.6624C4.76162 14.243 4.95208 12.8384 5.74082 11.4509C6.52223 10.0806 7.63085 9.19896 9.06424 8.80604C10.4952 8.41558 11.87 8.59239 13.174 9.34385C14.1092 9.88165 14.8271 10.5177 15.335 11.2618C15.8454 12.0083 16.2141 12.9366 16.4217 14.0589C16.6097 15.0092 16.8686 15.7705 17.2055 16.3525C17.545 16.9296 18.0138 17.4821 18.6145 17.9905C18.8831 17.2808 19.0272 16.5981 19.037 15.9399C19.0467 15.2794 18.888 14.4616 18.5608 13.5014C18.1823 12.389 18.0309 11.3747 18.092 10.4637C18.1603 9.55504 18.4509 8.64396 18.9686 7.73289C19.7183 6.41416 20.8098 5.56693 22.2407 5.17401C23.6693 4.78846 25.0685 4.98983 26.431 5.77321C27.8351 6.58115 28.7118 7.69851 29.0732 9.12037C29.437 10.5521 29.2124 11.9764 28.4065 13.3933C27.9255 14.2406 27.3175 14.9085 26.5824 15.4095C25.845 15.9031 24.9244 16.2666 23.8158 16.4925C22.8952 16.6668 22.1455 16.9296 21.5521 17.2783C20.9587 17.6246 20.4044 18.1084 19.8916 18.7247C20.6022 19.0121 21.2957 19.157 21.9721 19.157C22.6485 19.157 23.4422 18.9924 24.3481 18.683C25.447 18.2901 26.4481 18.1329 27.3614 18.1992C28.2747 18.2655 29.1855 18.5602 30.089 19.0808C31.393 19.8323 32.2428 20.9324 32.6335 22.3715C33.0217 23.8106 32.8288 25.2202 32.0499 26.5929C31.2514 27.9927 30.1452 28.8694 28.724 29.2279C27.3004 29.5938 25.8841 29.3679 24.4751 28.5575C23.6229 28.0663 22.9562 27.4622 22.4727 26.7329C21.9892 26.0035 21.6278 25.0777 21.3983 23.9432C21.2103 22.9928 20.9441 22.2291 20.5998 21.6471C20.2555 21.0601 19.7769 20.515 19.1591 20.0091H19.1615Z" fill="black"/>
<path d="M43.0625 22.2144H48.442V25.5076C48.442 26.4481 48.7009 27.1824 49.221 27.703C49.7411 28.1745 50.5445 28.4078 51.6385 28.4078C52.7324 28.4078 53.5334 28.1229 54.0535 27.5458C54.4686 27.0228 54.6762 25.898 54.6762 24.1741V13.806C54.6762 13.0202 54.9619 12.3547 55.5357 11.807C56.1047 11.2594 56.7811 10.9844 57.5625 10.9844H60.2144V24.4099C60.2144 26.1338 60.1363 27.3887 59.98 28.1745C59.7187 29.0635 59.3817 29.7683 58.9666 30.2913C58.2365 31.1803 57.2768 31.8606 56.0803 32.3296C54.7275 32.7471 53.2721 32.9558 51.7142 32.9558C50.0512 32.9558 48.6984 32.7471 47.6582 32.3296C46.5666 32.0693 45.6045 31.4946 44.7718 30.6032C44.0954 29.8714 43.6534 29.1396 43.4459 28.4078C43.1846 27.4672 43.0576 26.1092 43.0576 24.3313V22.2144H43.0625Z" fill="black"/>
<path d="M74.329 31.4676C73.2374 32.0446 72.08 32.3934 70.8566 32.526C69.6356 32.6561 68.5587 32.7224 67.6211 32.7224C65.7506 32.7224 64.1145 32.2141 62.7104 31.1925C61.3087 30.1734 60.6055 28.4887 60.6055 26.1337C60.6055 23.9383 61.2428 22.3715 62.515 21.431C63.7873 20.4904 65.4136 19.8618 67.3866 19.5474C67.6479 19.5474 67.9605 19.5081 68.3243 19.4296C68.6882 19.351 69.1033 19.2871 69.5721 19.2331C71.8577 18.9188 73.003 18.241 73.003 17.1948C73.003 16.4115 72.6001 15.9007 71.7943 15.6649C70.9884 15.4292 70.2485 15.3113 69.5721 15.3113C68.842 15.3113 68.1949 15.4169 67.6211 15.6256C67.0496 15.8344 66.6345 16.2273 66.3732 16.8019H61.15C61.3576 15.1811 62.0853 13.8477 63.3331 12.804C64.7347 11.6031 66.7371 10.999 69.3377 10.999C72.246 10.999 74.4315 11.4975 75.8869 12.4897C77.3935 13.5358 78.1481 14.9994 78.1481 16.8805V24.0169C78.1481 26.1091 77.7696 27.7397 77.015 28.9185C76.2605 30.0948 75.3643 30.9445 74.3265 31.4676H74.329ZM73.0787 21.8214C72.351 22.1873 71.3376 22.5262 70.0385 22.8406L68.2462 23.2335C67.3109 23.4962 66.6345 23.8351 66.2194 24.2526C65.8556 24.8273 65.6724 25.4019 65.6724 25.9765C65.6724 26.7599 65.9044 27.3861 66.3732 27.8576C66.8421 28.2776 67.5185 28.4838 68.4025 28.4838C69.8554 28.4838 71.0006 28.0664 71.8333 27.229C72.6636 26.394 73.0787 25.2423 73.0787 23.7787V21.819V21.8214Z" fill="black"/>
<path d="M97.0159 32.3295H94.2883C93.5093 32.3295 92.872 32.0815 92.3787 31.5854C91.8854 31.0893 91.6388 30.4484 91.6388 29.665V19.0022C91.6388 17.7473 91.2603 16.8338 90.5058 16.2567C89.7512 15.6821 88.9088 15.3948 87.9735 15.3948C87.0383 15.3948 86.2056 15.6821 85.4779 16.2567C84.7502 16.8338 84.3864 17.7449 84.3864 19.0022V32.3319H78.9287V20.0999C78.9287 16.544 79.8493 14.1669 81.6954 12.9636C83.539 11.7627 85.5804 11.1095 87.8172 11.0039C90.1028 11.0039 92.2078 11.6056 94.1295 12.8089C96.0538 14.0122 97.0159 16.4409 97.0159 20.0999V32.3319V32.3295Z" fill="black"/>
<path d="M106.84 32.3297V22.2145C106.84 20.1762 107.138 18.4646 107.736 17.0796C108.332 15.6945 109.152 14.5845 110.19 13.7471C111.177 12.9638 112.334 12.3891 113.66 12.0232C114.984 11.6573 116.351 11.4756 117.753 11.4756H118.534V17.0427H116.739C115.233 17.0427 114.114 17.4086 113.387 18.1404C112.659 18.8747 112.295 20.0215 112.295 21.5907V32.3321H106.84V32.3297Z" fill="black"/>
<path d="M121.653 30.4461C120.561 29.5055 119.782 28.2384 119.316 26.6446C118.847 25.0508 118.615 23.3907 118.615 21.6644C118.615 20.2523 118.808 18.8403 119.199 17.4282C119.59 16.0186 120.2 14.8399 121.03 13.9018C122.381 12.3326 124.122 11.4043 126.254 11.117C128.385 10.8297 130.307 10.9991 132.024 11.6253C133.999 12.4112 135.455 13.7692 136.392 15.7018C137.276 17.4258 137.718 19.4395 137.718 21.738C137.718 23.4128 137.535 24.8495 137.171 26.0503C136.805 27.2536 136.339 28.2727 135.77 29.1077C134.522 30.8341 132.935 31.9048 131.013 32.3222C129.296 32.7913 127.567 32.8306 125.829 32.4401C124.085 32.0472 122.696 31.3817 121.655 30.4412L121.653 30.4461ZM125.399 16.6473C124.307 17.8506 123.812 19.6408 123.917 22.018C124.022 24.3951 124.464 26.0552 125.243 26.9958C125.553 27.4132 126.1 27.7669 126.879 28.0542C127.658 28.3415 128.451 28.3685 129.257 28.1328C130.063 27.897 130.778 27.3076 131.401 26.3671C132.024 25.4265 132.363 23.9114 132.414 21.8191C132.414 19.938 132.117 18.5259 131.518 17.5854C130.92 16.6448 130.231 16.0432 129.452 15.7829C128.671 15.5201 127.892 15.5078 127.113 15.7436C126.334 15.9793 125.76 16.2814 125.399 16.6448V16.6473Z" fill="black"/>
<path d="M138.106 25.4289H143.407C143.456 26.475 143.847 27.2584 144.577 27.7815C145.356 28.3046 146.396 28.5673 147.695 28.5673C148.631 28.5673 149.436 28.3832 150.11 28.0172C150.735 27.6513 151.048 27.1553 151.048 26.5266C151.048 25.5861 149.956 24.8813 147.773 24.4098C146.836 24.2526 146.135 24.0954 145.669 23.9383C142.912 23.2605 141.068 22.4476 140.133 21.5071C139.092 20.5666 138.572 19.3117 138.572 17.7425C138.572 15.7582 139.327 14.1104 140.831 12.804C142.391 11.6031 144.418 10.999 146.914 10.999C149.617 10.999 151.773 11.6007 153.387 12.804C154.892 14.1104 155.7 15.8098 155.802 17.8996H152.45C151.458 17.8996 150.706 17.4576 150.188 16.5662C149.981 16.3574 149.771 16.1487 149.566 15.94C148.943 15.4685 148.084 15.2352 146.992 15.2352C145.901 15.2352 145.173 15.3923 144.653 15.7042C144.186 16.0185 143.949 16.4876 143.949 17.1163C143.949 17.9537 145.302 18.6585 148.005 19.2331C148.316 19.3387 148.589 19.4173 148.823 19.4688C149.06 19.5204 149.278 19.5474 149.485 19.5474C152.137 20.2277 153.981 21.011 155.021 21.9C156.008 22.8406 156.503 24.0954 156.503 25.6622C156.503 27.9632 155.668 29.7412 154.008 30.9936C152.447 32.1453 150.108 32.72 146.99 32.72C143.871 32.72 141.818 32.1208 140.362 30.9175C138.856 29.7142 138.104 27.9632 138.104 25.6622V25.4264L138.106 25.4289Z" fill="black"/>
<path d="M171.787 25.9005H175.684C175.111 28.0959 174.022 29.7707 172.412 30.92C170.798 32.1233 168.771 32.7225 166.33 32.7225C163.368 32.7225 161.053 31.7549 159.39 29.8223C157.727 27.9412 156.896 25.2472 156.896 21.7454C156.896 18.2435 157.697 15.7878 159.312 13.9067C160.974 11.9716 163.287 11.004 166.249 11.004C169.37 11.004 171.785 11.9445 173.501 13.8281C175.164 15.7632 175.997 18.4547 175.997 21.905V22.767C175.997 23.0297 175.97 23.2114 175.921 23.3146H162.432C162.484 24.9354 162.872 26.1362 163.602 26.922C164.278 27.7595 165.289 28.1769 166.645 28.1769C167.529 28.1769 168.281 27.9927 168.903 27.6268C169.06 27.5777 169.204 27.4844 169.333 27.3543C169.463 27.2241 169.607 27.0792 169.763 26.922C169.814 26.7649 170.009 26.5586 170.346 26.2958C170.683 26.0355 171.167 25.9054 171.79 25.9054L171.787 25.9005ZM169.372 6.61069L171.868 9.58949H168.749L166.332 7.00361L164.693 8.72998C164.383 9.04432 164.112 9.26533 163.878 9.39549C163.643 9.5281 163.292 9.59195 162.825 9.59195H160.952L163.448 6.61314C164.227 5.56946 165.216 5.04639 166.413 5.04639C167.609 5.04639 168.544 5.56946 169.375 6.61314L169.372 6.61069ZM162.432 19.7832H170.386C170.281 18.3712 169.917 17.325 169.294 16.6448C168.618 15.913 167.658 15.5471 166.41 15.5471C165.265 15.5471 164.33 15.913 163.602 16.6448C162.872 17.3766 162.484 18.4228 162.432 19.7832Z" fill="black"/>
</g>
<defs>
<clipPath id="clip0_7358_684">
<rect width="176" height="38" fill="white"/>
</clipPath>
</defs>
</svg>
