<svg width="176" height="38" viewBox="0 0 176 38" fill="none" xmlns="http://www.w3.org/2000/svg">
<g clip-path="url(#clip0_7358_550)">
<path fill-rule="evenodd" clip-rule="evenodd" d="M7.52618 27.3153C5.92674 26.6031 4.48602 25.4735 3.38472 23.9485C0.0393148 19.3268 1.05515 12.8535 5.6508 9.49159C6.10011 9.16252 6.56896 8.8752 7.04757 8.63208C5.66057 9.17234 4.36148 10.0048 3.24065 11.1296C-1.08152 15.4762 -1.08152 22.5217 3.24065 26.8683C4.63009 28.2657 6.30035 29.2111 8.06828 29.7096C7.78991 28.9287 7.61165 28.1232 7.52618 27.3153Z" fill="white"/>
<path fill-rule="evenodd" clip-rule="evenodd" d="M10.6226 7.56857C11.3307 5.96007 12.454 4.51119 13.9704 3.4012C18.5685 0.0392991 25.0029 1.06088 28.3459 5.68257C28.6731 6.13443 28.9563 6.60347 29.2005 7.08725C28.6609 5.69239 27.8355 4.38594 26.7171 3.25876C22.395 -1.08788 15.3891 -1.08788 11.067 3.25876C9.67754 4.65853 8.7374 6.3358 8.24414 8.11375C9.02067 7.83379 9.81917 7.65207 10.625 7.56857H10.6226Z" fill="white"/>
<path fill-rule="evenodd" clip-rule="evenodd" d="M34.5435 11.1294C33.154 9.73206 31.4838 8.7866 29.7158 8.28809C29.9918 9.06901 30.1725 9.87449 30.2579 10.6824C31.8574 11.3946 33.2981 12.5242 34.3994 14.0492C37.7448 18.6709 36.729 25.1418 32.1333 28.5061C31.684 28.8352 31.2176 29.1201 30.7365 29.3656C32.1235 28.8229 33.4251 27.9929 34.5435 26.8682C38.8656 22.5215 38.8656 15.4736 34.5435 11.1269V11.1294Z" fill="white"/>
<path fill-rule="evenodd" clip-rule="evenodd" d="M27.162 30.429C26.4538 32.0375 25.3305 33.4863 23.8141 34.5963C19.2185 37.9582 12.7841 36.9391 9.43865 32.3174C9.11143 31.8656 8.82817 31.3941 8.58398 30.9103C9.12364 32.3051 9.94901 33.614 11.0698 34.7388C15.392 39.0854 22.3978 39.0854 26.72 34.7388C28.1119 33.339 29.0496 31.6617 29.5453 29.8838C28.7687 30.1637 27.9678 30.343 27.1644 30.429H27.162Z" fill="white"/>
<path fill-rule="evenodd" clip-rule="evenodd" d="M19.1615 20.0093C18.8929 20.719 18.7537 21.4042 18.7537 22.0623C18.7464 22.7156 18.9075 23.5284 19.225 24.4812C19.5937 25.5568 19.7476 26.5563 19.6963 27.4748C19.6377 28.3907 19.3715 29.2748 18.8929 30.1171C18.0993 31.5095 16.9955 32.4108 15.5744 32.8086C14.1605 33.2114 12.7637 33.0173 11.3841 32.2241C10.0215 31.4383 9.13994 30.3283 8.74436 28.8991C8.34877 27.4698 8.52459 26.0897 9.28402 24.7587C9.78949 23.8722 10.4048 23.1797 11.1228 22.6738C11.848 22.1728 12.8077 21.7848 14.0018 21.5172C14.9346 21.3207 15.6891 21.0506 16.2679 20.7043C16.8515 20.3605 17.3911 19.8816 17.8893 19.2751C17.1884 18.9951 16.512 18.8502 15.8576 18.8478C15.2056 18.8478 14.3925 19 13.4352 19.3119C12.3657 19.6827 11.3718 19.8374 10.4635 19.7883C9.55995 19.7343 8.69063 19.4715 7.86527 18.9951C6.48071 18.197 5.57721 17.0821 5.16941 15.6627C4.76162 14.2433 4.95208 12.8386 5.74082 11.4511C6.52223 10.0808 7.63085 9.1992 9.06424 8.80628C10.4952 8.41582 11.87 8.59264 13.174 9.34409C14.1092 9.8819 14.8271 10.5179 15.335 11.262C15.8454 12.0086 16.2141 12.9368 16.4217 14.0591C16.6097 15.0095 16.8686 15.7707 17.2055 16.3527C17.545 16.9298 18.0138 17.4824 18.6145 17.9907C18.8831 17.281 19.0272 16.5983 19.037 15.9402C19.0467 15.2796 18.888 14.4618 18.5608 13.5016C18.1823 12.3892 18.0309 11.375 18.092 10.4639C18.1603 9.55528 18.4509 8.64421 18.9686 7.73313C19.7183 6.4144 20.8098 5.56717 22.2407 5.17426C23.6693 4.78871 25.0685 4.99008 26.431 5.77346C27.8351 6.58139 28.7118 7.69875 29.0732 9.12062C29.437 10.5523 29.2124 11.9766 28.4065 13.3936C27.9255 14.2408 27.3175 14.9088 26.5824 15.4097C25.845 15.9034 24.9244 16.2668 23.8158 16.4927C22.8952 16.6671 22.1455 16.9298 21.5521 17.2786C20.9587 17.6248 20.4044 18.1086 19.8916 18.725C20.6022 19.0123 21.2957 19.1572 21.9721 19.1572C22.6485 19.1572 23.4422 18.9927 24.3481 18.6832C25.447 18.2903 26.4481 18.1332 27.3614 18.1995C28.2747 18.2658 29.1855 18.5605 30.089 19.0811C31.393 19.8325 32.2428 20.9327 32.6335 22.3717C33.0217 23.8108 32.8288 25.2204 32.0499 26.5932C31.2514 27.9929 30.1452 28.8696 28.724 29.2282C27.3004 29.5941 25.8841 29.3681 24.4751 28.5577C23.6229 28.0666 22.9562 27.4625 22.4727 26.7331C21.9892 26.0038 21.6278 25.078 21.3983 23.9434C21.2103 22.993 20.9441 22.2293 20.5998 21.6473C20.2555 21.0604 19.7769 20.5152 19.1591 20.0093H19.1615Z" fill="white"/>
<path d="M43.0625 22.2147H48.442V25.5078C48.442 26.4484 48.7009 27.1826 49.221 27.7032C49.7411 28.1747 50.5445 28.408 51.6385 28.408C52.7324 28.408 53.5334 28.1232 54.0535 27.5461C54.4686 27.023 54.6762 25.8983 54.6762 24.1744V13.8063C54.6762 13.0204 54.9619 12.3549 55.5357 11.8073C56.1047 11.2597 56.7811 10.9846 57.5625 10.9846H60.2144V24.4101C60.2144 26.134 60.1363 27.3889 59.98 28.1747C59.7187 29.0637 59.3817 29.7685 58.9666 30.2916C58.2365 31.1806 57.2768 31.8608 56.0803 32.3298C54.7275 32.7473 53.2721 32.9561 51.7142 32.9561C50.0512 32.9561 48.6984 32.7473 47.6582 32.3298C46.5666 32.0695 45.6045 31.4949 44.7718 30.6035C44.0954 29.8717 43.6534 29.1398 43.4459 28.408C43.1846 27.4675 43.0576 26.1095 43.0576 24.3315V22.2147H43.0625Z" fill="white"/>
<path d="M74.329 31.4678C73.2374 32.0449 72.08 32.3936 70.8566 32.5262C69.6356 32.6564 68.5587 32.7227 67.6211 32.7227C65.7506 32.7227 64.1145 32.2143 62.7104 31.1928C61.3087 30.1736 60.6055 28.489 60.6055 26.1339C60.6055 23.9385 61.2428 22.3718 62.515 21.4312C63.7873 20.4907 65.4136 19.862 67.3866 19.5477C67.6479 19.5477 67.9605 19.5084 68.3243 19.4298C68.6882 19.3512 69.1033 19.2874 69.5721 19.2333C71.8577 18.919 73.003 18.2412 73.003 17.1951C73.003 16.4117 72.6001 15.9009 71.7943 15.6652C70.9884 15.4294 70.2485 15.3115 69.5721 15.3115C68.842 15.3115 68.1949 15.4171 67.6211 15.6259C67.0496 15.8346 66.6345 16.2275 66.3732 16.8022H61.15C61.3576 15.1814 62.0853 13.8479 63.3331 12.8042C64.7347 11.6034 66.7371 10.9993 69.3377 10.9993C72.246 10.9993 74.4315 11.4978 75.8869 12.4899C77.3935 13.536 78.1481 14.9997 78.1481 16.8807V24.0171C78.1481 26.1094 77.7696 27.74 77.015 28.9187C76.2605 30.095 75.3643 30.9447 74.3265 31.4678H74.329ZM73.0787 21.8217C72.351 22.1876 71.3376 22.5265 70.0385 22.8408L68.2462 23.2337C67.3109 23.4965 66.6345 23.8354 66.2194 24.2529C65.8556 24.8275 65.6724 25.4021 65.6724 25.9768C65.6724 26.7602 65.9044 27.3864 66.3732 27.8579C66.8421 28.2778 67.5185 28.4841 68.4025 28.4841C69.8554 28.4841 71.0006 28.0666 71.8333 27.2292C72.6636 26.3943 73.0787 25.2425 73.0787 23.7789V21.8192V21.8217Z" fill="white"/>
<path d="M97.0159 32.3297H94.2883C93.5093 32.3297 92.872 32.0817 92.3787 31.5856C91.8854 31.0896 91.6388 30.4486 91.6388 29.6653V19.0025C91.6388 17.7476 91.2603 16.8341 90.5058 16.257C89.7512 15.6823 88.9088 15.395 87.9735 15.395C87.0383 15.395 86.2056 15.6823 85.4779 16.257C84.7502 16.8341 84.3864 17.7451 84.3864 19.0025V32.3322H78.9287V20.1002C78.9287 16.5443 79.8493 14.1671 81.6954 12.9638C83.539 11.763 85.5804 11.1097 87.8172 11.0042C90.1028 11.0042 92.2078 11.6058 94.1295 12.8091C96.0538 14.0124 97.0159 16.4411 97.0159 20.1002V32.3322V32.3297Z" fill="white"/>
<path d="M106.84 32.3299V22.2147C106.84 20.1765 107.138 18.4648 107.736 17.0798C108.332 15.6948 109.152 14.5848 110.19 13.7474C111.177 12.964 112.334 12.3894 113.66 12.0235C114.984 11.6576 116.351 11.4758 117.753 11.4758H118.534V17.043H116.739C115.233 17.043 114.114 17.4089 113.387 18.1407C112.659 18.875 112.295 20.0218 112.295 21.591V32.3324H106.84V32.3299Z" fill="white"/>
<path d="M121.653 30.4463C120.561 29.5058 119.782 28.2386 119.316 26.6448C118.847 25.0511 118.615 23.391 118.615 21.6646C118.615 20.2526 118.808 18.8405 119.199 17.4285C119.59 16.0189 120.2 14.8401 121.03 13.902C122.381 12.3328 124.122 11.4046 126.254 11.1172C128.385 10.8299 130.307 10.9994 132.024 11.6256C133.999 12.4114 135.455 13.7694 136.392 15.7021C137.276 17.426 137.718 19.4397 137.718 21.7383C137.718 23.4131 137.535 24.8497 137.171 26.0505C136.805 27.2539 136.339 28.273 135.77 29.1079C134.522 30.8343 132.935 31.905 131.013 32.3225C129.296 32.7915 127.567 32.8308 125.829 32.4404C124.085 32.0474 122.696 31.3819 121.655 30.4414L121.653 30.4463ZM125.399 16.6475C124.307 17.8509 123.812 19.6411 123.917 22.0182C124.022 24.3954 124.464 26.0555 125.243 26.996C125.553 27.4135 126.1 27.7671 126.879 28.0544C127.658 28.3417 128.451 28.3688 129.257 28.133C130.063 27.8973 130.778 27.3079 131.401 26.3673C132.024 25.4268 132.363 23.9116 132.414 21.8193C132.414 19.9382 132.117 18.5262 131.518 17.5856C130.92 16.6451 130.231 16.0434 129.452 15.7831C128.671 15.5204 127.892 15.5081 127.113 15.7438C126.334 15.9796 125.76 16.2816 125.399 16.6451V16.6475Z" fill="white"/>
<path d="M138.106 25.4291H143.407C143.456 26.4753 143.847 27.2587 144.577 27.7817C145.356 28.3048 146.396 28.5676 147.695 28.5676C148.631 28.5676 149.436 28.3834 150.11 28.0175C150.735 27.6516 151.048 27.1555 151.048 26.5269C151.048 25.5863 149.956 24.8815 147.773 24.41C146.836 24.2529 146.135 24.0957 145.669 23.9385C142.912 23.2607 141.068 22.4479 140.133 21.5073C139.092 20.5668 138.572 19.3119 138.572 17.7427C138.572 15.7585 139.327 14.1107 140.831 12.8042C142.391 11.6034 144.418 10.9993 146.914 10.9993C149.617 10.9993 151.773 11.6009 153.387 12.8042C154.892 14.1107 155.7 15.81 155.802 17.8999H152.45C151.458 17.8999 150.706 17.4578 150.188 16.5664C149.981 16.3577 149.771 16.1489 149.566 15.9402C148.943 15.4687 148.084 15.2354 146.992 15.2354C145.901 15.2354 145.173 15.3926 144.653 15.7045C144.186 16.0188 143.949 16.4878 143.949 17.1165C143.949 17.9539 145.302 18.6587 148.005 19.2333C148.316 19.3389 148.589 19.4175 148.823 19.4691C149.06 19.5207 149.278 19.5477 149.485 19.5477C152.137 20.2279 153.981 21.0113 155.021 21.9003C156.008 22.8408 156.503 24.0957 156.503 25.6624C156.503 27.9635 155.668 29.7414 154.008 30.9938C152.447 32.1456 150.108 32.7202 146.99 32.7202C143.871 32.7202 141.818 32.121 140.362 30.9177C138.856 29.7144 138.104 27.9635 138.104 25.6624V25.4267L138.106 25.4291Z" fill="white"/>
<path d="M171.787 25.9007H175.684C175.111 28.0961 174.022 29.7709 172.412 30.9202C170.798 32.1235 168.771 32.7227 166.33 32.7227C163.368 32.7227 161.053 31.7552 159.39 29.8225C157.727 27.9414 156.896 25.2475 156.896 21.7456C156.896 18.2437 157.697 15.788 159.312 13.9069C160.974 11.9718 163.287 11.0042 166.249 11.0042C169.37 11.0042 171.785 11.9448 173.501 13.8283C175.164 15.7634 175.997 18.4549 175.997 21.9052V22.7672C175.997 23.03 175.97 23.2117 175.921 23.3148H162.432C162.484 24.9356 162.872 26.1365 163.602 26.9223C164.278 27.7597 165.289 28.1772 166.645 28.1772C167.529 28.1772 168.281 27.993 168.903 27.6271C169.06 27.578 169.204 27.4847 169.333 27.3545C169.463 27.2243 169.607 27.0795 169.763 26.9223C169.814 26.7651 170.009 26.5588 170.346 26.2961C170.683 26.0358 171.167 25.9056 171.79 25.9056L171.787 25.9007ZM169.372 6.61093L171.868 9.58974H168.749L166.332 7.00385L164.693 8.73023C164.383 9.04456 164.112 9.26558 163.878 9.39573C163.643 9.52834 163.292 9.59219 162.825 9.59219H160.952L163.448 6.61339C164.227 5.5697 165.216 5.04663 166.413 5.04663C167.609 5.04663 168.544 5.5697 169.375 6.61339L169.372 6.61093ZM162.432 19.7835H170.386C170.281 18.3714 169.917 17.3253 169.294 16.6451C168.618 15.9132 167.658 15.5473 166.41 15.5473C165.265 15.5473 164.33 15.9132 163.602 16.6451C162.872 17.3769 162.484 18.423 162.432 19.7835Z" fill="white"/>
</g>
<defs>
<clipPath id="clip0_7358_550">
<rect width="176" height="38" fill="white"/>
</clipPath>
</defs>
</svg>
