<svg width="23" height="18" viewBox="0 0 23 18" fill="none" xmlns="http://www.w3.org/2000/svg">
<g clip-path="url(#clip0_7358_514)">
<path d="M8.19355 0.140625L10.2061 3.07032L9.4873 3.5625C8.4012 4.28125 7.64252 4.92187 7.21126 5.48437C6.79598 6.04687 6.58835 6.71875 6.58835 7.5V8.41407L5.63002 7.33593C7.06752 7.33593 8.21752 7.75782 9.08002 8.60157C9.95848 9.44532 10.3977 10.5859 10.3977 12.0234C10.3977 13.4297 9.95848 14.5625 9.08002 15.4218C8.20154 16.2813 7.04355 16.7109 5.60605 16.7109C4.5998 16.7109 3.71335 16.4922 2.94669 16.0546C2.18002 15.6172 1.58105 14.9766 1.1498 14.1328C0.718555 13.2734 0.50293 12.2109 0.50293 10.9453C0.50293 8.86719 1.05397 7 2.15605 5.34375C3.25814 3.67188 4.75953 2.25 6.66022 1.07812L8.19355 0.140625ZM19.981 0.140625L21.9936 3.07032L21.2748 3.5625C20.1887 4.28125 19.438 4.92187 19.0226 5.48437C18.6074 6.04687 18.3998 6.71875 18.3998 7.5V8.41407L17.4175 7.33593C18.871 7.33593 20.029 7.75782 20.8915 8.60157C21.754 9.44532 22.1853 10.5859 22.1853 12.0234C22.1853 13.4297 21.746 14.5625 20.8675 15.4218C20.005 16.2813 18.8471 16.7109 17.3936 16.7109C16.4032 16.7109 15.5168 16.4922 14.7342 16.0546C13.9675 15.6172 13.3686 14.9766 12.9373 14.1328C12.522 13.2734 12.3144 12.2109 12.3144 10.9453C12.3144 8.86719 12.8654 7 13.9675 5.34375C15.0696 3.67188 16.563 2.25 18.4476 1.07812L19.981 0.140625Z" fill="url(#paint0_linear_7358_514)"/>
</g>
<defs>
<linearGradient id="paint0_linear_7358_514" x1="-1.53353" y1="17.25" x2="26.0665" y2="17.25" gradientUnits="userSpaceOnUse">
<stop stop-color="#A8753D"/>
<stop offset="1" stop-color="#D89A2A"/>
</linearGradient>
<clipPath id="clip0_7358_514">
<rect width="23" height="18" fill="white"/>
</clipPath>
</defs>
</svg>
